<?xml version="1.0" encoding="UTF-8"?>
<svg xmlns="http://www.w3.org/2000/svg" xmlns:xlink="http://www.w3.org/1999/xlink" width="470px" height="294px" viewBox="0 0 469 294" version="1.1">
<defs>
<clipPath id="clip1">
  <path d="M 89.53125 102.007812 L 378.902344 102.007812 L 378.902344 156.492188 L 89.53125 156.492188 Z M 89.53125 102.007812 "/>
</clipPath>
<clipPath id="clip2">
  <path d="M 89.53125 169.351562 L 378.902344 169.351562 L 378.902344 191.042969 L 89.53125 191.042969 Z M 89.53125 169.351562 "/>
</clipPath>
<clipPath id="clip3">
  <path d="M 0.0976562 0 L 284 0 L 284 293.050781 L 0.0976562 293.050781 Z M 0.0976562 0 "/>
</clipPath>
<clipPath id="clip4">
  <path d="M 0.0976562 0 L 291 0 L 291 293.050781 L 0.0976562 293.050781 Z M 0.0976562 0 "/>
</clipPath>
</defs>
<g id="surface1">
<g clip-path="url(#clip1)" clip-rule="nonzero">
<path style=" stroke:none;fill-rule:nonzero;fill:rgb(11.764706%,73.333333%,84.313725%);fill-opacity:1;" d="M 108.480469 153.285156 C 108.113281 153.652344 107.652344 153.875 107.101562 153.949219 C 104.855469 154.242188 101.433594 154.390625 96.835938 154.390625 L 90.382812 154.28125 C 89.828125 154.242188 89.554688 153.984375 89.554688 153.507812 L 89.664062 152.953125 C 90.179688 151.703125 90.925781 149.988281 91.902344 147.816406 C 92.875 145.640625 94.925781 141.632812 98.050781 135.789062 C 101.179688 129.957031 104.378906 124.625 107.652344 119.800781 C 111 114.9375 113.1875 112.101562 114.21875 111.289062 C 114.699219 110.882812 115.140625 110.683594 115.542969 110.683594 C 115.835938 110.683594 115.984375 110.847656 115.984375 111.179688 C 115.984375 111.769531 115.488281 113.078125 114.496094 115.101562 C 113.5 117.128906 112.636719 118.769531 111.902344 120.019531 C 103.328125 135.492188 97.996094 145.992188 95.898438 151.515625 C 95.863281 151.628906 95.84375 151.738281 95.84375 151.847656 C 95.84375 152.476562 96.488281 152.789062 97.773438 152.789062 C 100.277344 152.789062 102.59375 151.976562 104.726562 150.355469 C 107.890625 147.816406 110.722656 144.921875 113.226562 141.679688 C 113.519531 141.386719 113.8125 141.238281 114.109375 141.238281 C 114.402344 141.238281 114.550781 141.421875 114.550781 141.792969 C 114.550781 142.160156 114.347656 142.804688 113.941406 143.726562 C 111.550781 148.921875 109.730469 152.105469 108.480469 153.285156 Z M 138.332031 133.722656 C 138.664062 133.796875 138.828125 133.910156 138.828125 134.054688 C 138.828125 134.277344 138.683594 134.535156 138.386719 134.828125 C 137.984375 135.234375 137.382812 135.769531 136.589844 136.433594 C 135.800781 137.09375 135.335938 137.5 135.1875 137.648438 L 134.414062 138.699219 C 133.644531 140.871094 132.453125 143.125 130.851562 145.460938 C 129.253906 147.804688 127.304688 149.859375 125 151.628906 C 122.707031 153.394531 120.507812 154.28125 118.414062 154.28125 C 115.800781 154.28125 114.496094 152.675781 114.496094 149.472656 C 114.496094 146.636719 115.414062 143.566406 117.253906 140.265625 C 119.09375 136.972656 121.472656 134.15625 124.394531 131.8125 C 127.324219 129.476562 130.203125 128.308594 133.035156 128.308594 C 135.097656 128.308594 136.125 129.121094 136.125 130.742188 C 136.125 131.625 135.683594 132.820312 134.800781 134.332031 C 134.765625 134.367188 134.746094 134.425781 134.746094 134.496094 C 134.746094 134.570312 134.785156 134.609375 134.855469 134.609375 C 136.21875 134.054688 137.375 133.761719 138.332031 133.722656 Z M 133.089844 135.050781 C 133.386719 133.761719 133.53125 132.765625 133.53125 132.066406 C 133.53125 130.519531 133.015625 129.746094 131.988281 129.746094 C 130.550781 129.746094 128.769531 131.070312 126.636719 133.722656 C 124.5 136.375 122.667969 139.359375 121.140625 142.675781 C 119.617188 145.992188 118.855469 148.605469 118.855469 150.523438 C 118.855469 151.921875 119.351562 152.621094 120.34375 152.621094 C 121.890625 152.621094 123.734375 151.074219 125.882812 147.980469 C 128.039062 144.886719 129.339844 141.773438 129.78125 138.640625 C 129.742188 138.570312 129.726562 138.457031 129.726562 138.3125 C 129.726562 137.242188 130.679688 136.285156 132.59375 135.4375 C 132.890625 135.328125 133.054688 135.199219 133.089844 135.050781 Z M 144.898438 145.824219 L 145.894531 143.945312 L 147.605469 141.019531 C 147.605469 140.90625 147.566406 140.851562 147.492188 140.851562 C 147.417969 140.851562 147.328125 140.90625 147.21875 141.019531 C 145.855469 142.601562 144.441406 144.136719 142.96875 145.625 C 141.496094 147.121094 140.375 148.21875 139.601562 148.921875 L 138.386719 149.96875 C 135.519531 152.695312 133.53125 154.058594 132.429688 154.058594 C 131.914062 154.058594 131.65625 153.726562 131.65625 153.0625 C 131.65625 152.328125 131.957031 151.203125 132.5625 149.695312 C 133.171875 148.183594 133.789062 146.839844 134.414062 145.660156 L 135.296875 143.945312 C 138.386719 138.164062 140.667969 134.296875 142.140625 132.34375 C 142.875 131.386719 143.777344 130.582031 144.84375 129.933594 C 145.910156 129.292969 146.738281 128.972656 147.328125 128.972656 C 147.695312 128.972656 147.878906 129.101562 147.878906 129.359375 C 147.878906 129.507812 147.804688 129.707031 147.660156 129.964844 C 147.585938 130.113281 146.832031 131.335938 145.394531 133.636719 C 143.960938 135.941406 142.804688 137.921875 141.921875 139.582031 C 139.492188 144.039062 138.277344 146.597656 138.277344 147.261719 C 138.277344 147.519531 138.386719 147.648438 138.609375 147.648438 C 138.941406 147.648438 139.511719 147.316406 140.320312 146.65625 C 142.710938 144.589844 145.339844 141.808594 148.210938 138.3125 C 149.792969 136.617188 151.449219 134.40625 153.175781 131.679688 C 154.355469 129.875 155.917969 128.972656 157.867188 128.972656 C 158.199219 128.972656 158.363281 129.121094 158.363281 129.414062 L 157.921875 130.464844 C 157.40625 131.386719 156.257812 133.398438 154.46875 136.507812 C 152.6875 139.625 151.667969 141.40625 151.410156 141.847656 C 149.902344 144.5 149.148438 146.25 149.148438 147.097656 C 149.148438 147.429688 149.257812 147.59375 149.480469 147.59375 C 149.847656 147.59375 151.023438 146.671875 153.011719 144.832031 C 154.554688 143.285156 156.597656 141.054688 159.136719 138.144531 C 159.246094 138.035156 159.339844 137.980469 159.414062 137.980469 C 159.484375 137.980469 159.523438 138.050781 159.523438 138.199219 C 159.523438 138.898438 159.246094 139.582031 158.695312 140.246094 C 155.972656 143.265625 153.5625 145.789062 151.464844 147.816406 C 150.03125 149.179688 148.421875 150.539062 146.632812 151.902344 C 144.851562 153.265625 143.558594 153.949219 142.746094 153.949219 C 142.195312 153.949219 141.921875 153.5625 141.921875 152.789062 C 141.921875 152.347656 142.25 151.386719 142.914062 149.914062 C 143.574219 148.441406 144.238281 147.078125 144.898438 145.824219 Z M 161.5 147.816406 C 157.195312 151.867188 154.433594 153.894531 153.222656 153.894531 C 152.59375 153.894531 152.28125 153.46875 152.28125 152.621094 C 152.28125 151.773438 152.613281 150.539062 153.277344 148.921875 C 153.9375 147.300781 154.601562 145.878906 155.261719 144.664062 L 156.257812 142.898438 C 159.050781 137.996094 161.167969 134.480469 162.601562 132.34375 C 163.226562 131.421875 164.027344 130.636719 165.007812 129.988281 C 165.980469 129.347656 166.886719 129.027344 167.734375 129.027344 C 168.027344 129.027344 168.175781 129.15625 168.175781 129.414062 C 168.175781 129.597656 168.046875 129.949219 167.789062 130.464844 C 167.347656 131.273438 166.261719 133.207031 164.53125 136.265625 C 162.804688 139.324219 161.773438 141.164062 161.441406 141.792969 C 159.933594 144.445312 159.179688 146.210938 159.179688 147.097656 C 159.179688 147.429688 159.289062 147.59375 159.511719 147.59375 C 159.878906 147.59375 161.058594 146.671875 163.042969 144.832031 C 164.589844 143.285156 166.628906 141.054688 169.167969 138.144531 C 169.277344 138.035156 169.371094 137.980469 169.445312 137.980469 C 169.519531 137.980469 169.554688 138.050781 169.554688 138.199219 C 169.554688 138.898438 169.277344 139.582031 168.726562 140.246094 C 166.003906 143.265625 163.59375 145.789062 161.5 147.816406 Z M 168.835938 125.878906 C 167.917969 125.878906 167.457031 125.324219 167.457031 124.21875 C 167.457031 123.1875 167.84375 122.144531 168.617188 121.09375 C 169.390625 120.046875 170.234375 119.523438 171.15625 119.523438 C 172.257812 119.523438 172.808594 120.148438 172.808594 121.402344 C 172.808594 122.433594 172.386719 123.433594 171.542969 124.40625 C 170.695312 125.386719 169.792969 125.878906 168.835938 125.878906 Z M 176.949219 146.875 C 176.285156 148.679688 175.238281 150.199219 173.804688 151.429688 C 172.367188 152.667969 171.039062 153.507812 169.808594 153.949219 C 168.574219 154.390625 167.457031 154.613281 166.464844 154.613281 C 163.777344 154.613281 162.4375 153.5625 162.4375 151.460938 C 162.4375 149.324219 163.613281 147.390625 165.96875 145.660156 C 167.070312 144.847656 168.265625 144.316406 169.554688 144.058594 C 169.738281 144.058594 169.832031 144.132812 169.832031 144.277344 C 169.832031 144.351562 169.792969 144.425781 169.71875 144.5 C 168.800781 145.199219 167.929688 146.285156 167.105469 147.757812 C 166.273438 149.234375 165.859375 150.523438 165.859375 151.628906 C 165.859375 152.734375 166.316406 153.285156 167.238281 153.285156 C 167.972656 153.285156 168.699219 152.980469 169.421875 152.367188 C 170.136719 151.765625 170.675781 151.148438 171.042969 150.523438 L 171.597656 149.636719 C 172.332031 148.460938 172.949219 146.582031 173.449219 144.003906 C 173.945312 141.421875 174.261719 139.140625 174.410156 137.148438 L 174.574219 134.167969 C 174.574219 133.871094 174.519531 133.722656 174.410156 133.722656 L 174.191406 133.835938 L 168.726562 140.246094 C 168.320312 140.722656 168.046875 140.964844 167.898438 140.964844 C 167.714844 140.964844 167.625 140.835938 167.625 140.574219 C 167.625 140.097656 167.753906 139.730469 168.007812 139.472656 L 168.507812 138.863281 C 172.699219 134.148438 175.089844 131.292969 175.679688 130.296875 C 176.230469 129.449219 177.039062 128.714844 178.109375 128.089844 C 179.136719 127.5 180.351562 127.203125 181.75 127.203125 C 182.117188 127.203125 182.300781 127.351562 182.300781 127.644531 C 182.300781 127.832031 182.15625 127.996094 181.859375 128.144531 C 181.75 128.179688 181.613281 128.261719 181.453125 128.386719 C 181.28125 128.519531 180.988281 128.824219 180.570312 129.304688 C 180.140625 129.78125 179.761719 130.335938 179.433594 130.960938 C 179.101562 131.585938 178.808594 132.460938 178.550781 133.582031 C 178.292969 134.707031 178.164062 135.953125 178.164062 137.316406 C 178.164062 141.550781 177.757812 144.738281 176.949219 146.875 Z M 236.597656 112.175781 C 234.6875 114.9375 232.554688 118.4375 230.199219 122.671875 C 227.84375 126.910156 225.96875 130.464844 224.570312 133.335938 L 222.472656 137.648438 C 218.683594 145.53125 216.789062 151.1875 216.789062 154.613281 C 216.789062 154.683594 216.796875 154.832031 216.8125 155.054688 C 216.832031 155.273438 216.84375 155.457031 216.84375 155.605469 C 216.84375 156.195312 216.679688 156.492188 216.347656 156.492188 C 215.722656 156.492188 215.042969 155.949219 214.304688 154.867188 C 213.570312 153.773438 213.203125 152.328125 213.203125 150.523438 C 213.203125 148.863281 213.597656 146.839844 214.382812 144.445312 C 215.179688 142.050781 216.347656 139.3125 217.894531 136.234375 C 219.4375 133.160156 220.734375 130.683594 221.777344 128.804688 C 222.828125 126.925781 224.21875 124.476562 225.949219 121.457031 C 226.058594 121.234375 226.113281 121.070312 226.113281 120.960938 C 226.042969 120.777344 225.949219 120.683594 225.839844 120.683594 C 225.617188 120.683594 225.398438 120.777344 225.175781 120.960938 C 223.007812 122.726562 220.15625 125.730469 216.625 129.964844 C 213.09375 134.203125 210.113281 137.996094 207.683594 141.351562 L 203.988281 146.378906 C 203.398438 147.261719 202.921875 147.703125 202.554688 147.703125 C 202.441406 147.703125 202.351562 147.667969 202.277344 147.59375 C 202.203125 147.519531 202.148438 147.417969 202.113281 147.285156 C 202.074219 147.160156 202.046875 147.042969 202.023438 146.929688 C 202.007812 146.820312 202 146.726562 202 146.65625 L 202 146.542969 C 202.257812 144.261719 202.632812 141.074219 203.125 136.984375 C 203.628906 132.894531 204.042969 129.449219 204.375 126.652344 C 204.703125 123.851562 204.871094 122.414062 204.871094 122.339844 C 204.871094 121.972656 204.796875 121.789062 204.648438 121.789062 C 204.578125 121.789062 204.472656 121.84375 204.339844 121.953125 C 204.214844 122.066406 204.117188 122.175781 204.042969 122.285156 L 203.933594 122.453125 C 202.351562 124.808594 200.660156 127.855469 198.855469 131.589844 C 197.054688 135.335938 195.601562 138.640625 194.496094 141.515625 C 193.6875 143.578125 192.859375 145.464844 192.011719 147.175781 C 191.167969 148.890625 190.421875 150.214844 189.773438 151.152344 C 189.132812 152.09375 188.542969 152.890625 188.007812 153.539062 C 187.476562 154.179688 187.066406 154.613281 186.769531 154.832031 L 186.328125 155.164062 C 185.925781 155.496094 185.613281 155.660156 185.390625 155.660156 C 185.171875 155.660156 185.058594 155.476562 185.058594 155.109375 L 185.117188 154.613281 C 185.484375 152.660156 187.089844 148.9375 189.9375 143.449219 C 192.792969 137.960938 195.5625 132.949219 198.25 128.417969 L 202.277344 121.679688 L 205.3125 116.429688 C 206.820312 112.117188 207.980469 109.964844 208.789062 109.964844 C 209.339844 109.964844 209.617188 110.902344 209.617188 112.78125 C 208.476562 126.484375 207.90625 134.3125 207.90625 136.265625 C 207.90625 136.820312 208.015625 137.09375 208.238281 137.09375 C 208.457031 137.09375 208.714844 136.890625 209.007812 136.488281 C 209.488281 135.859375 210.148438 135.011719 210.996094 133.945312 C 211.839844 132.875 213.460938 130.960938 215.851562 128.199219 C 218.242188 125.4375 220.492188 122.949219 222.605469 120.738281 C 224.726562 118.527344 227.035156 116.410156 229.535156 114.382812 C 232.039062 112.359375 234.097656 111.125 235.714844 110.683594 C 236.085938 110.609375 236.324219 110.570312 236.433594 110.570312 C 236.875 110.570312 237.097656 110.738281 237.097656 111.070312 C 237.097656 111.363281 236.929688 111.730469 236.597656 112.175781 Z M 237.140625 134.441406 C 237.582031 133.523438 237.800781 132.710938 237.800781 132.011719 C 237.800781 131.421875 237.617188 131.128906 237.25 131.128906 C 237.03125 131.128906 236.785156 131.191406 236.511719 131.316406 C 236.230469 131.449219 236.019531 131.585938 235.871094 131.734375 L 235.59375 131.957031 C 234.453125 132.949219 233.03125 134.761719 231.324219 137.394531 C 229.609375 140.03125 228.753906 141.71875 228.753906 142.453125 C 228.753906 142.601562 228.789062 142.675781 228.863281 142.675781 C 229.082031 142.675781 229.574219 142.492188 230.332031 142.125 C 231.082031 141.753906 232.167969 140.890625 233.585938 139.527344 C 235 138.164062 236.183594 136.46875 237.140625 134.441406 Z M 234.65625 147.097656 C 236.605469 145.292969 239.402344 142.308594 243.042969 138.144531 C 243.15625 138.035156 243.246094 137.980469 243.320312 137.980469 C 243.394531 137.980469 243.429688 138.050781 243.429688 138.199219 C 243.429688 138.898438 243.15625 139.582031 242.601562 140.246094 C 239.882812 143.265625 237.472656 145.789062 235.375 147.816406 C 233.828125 149.363281 231.988281 150.84375 229.855469 152.257812 C 227.722656 153.679688 225.957031 154.390625 224.558594 154.390625 C 222.867188 154.390625 222.019531 153.210938 222.019531 150.855469 C 222.019531 146.949219 223.464844 142.859375 226.359375 138.585938 C 229.242188 134.3125 232.578125 131.421875 236.367188 129.910156 C 237.949219 129.25 239.382812 128.917969 240.671875 128.917969 C 242.105469 128.917969 242.824219 129.488281 242.824219 130.628906 C 242.824219 132.765625 241.316406 135.214844 238.300781 137.980469 C 235.28125 140.742188 231.898438 142.839844 228.144531 144.277344 C 228 144.316406 227.871094 144.445312 227.757812 144.664062 C 227.207031 146.175781 226.933594 147.519531 226.933594 148.699219 C 226.933594 150.023438 227.429688 150.6875 228.421875 150.6875 C 230.003906 150.6875 232.082031 149.492188 234.65625 147.097656 Z M 247.402344 144.832031 C 248.949219 143.285156 250.992188 141.054688 253.527344 138.144531 C 253.640625 138.035156 253.730469 137.980469 253.804688 137.980469 C 253.878906 137.980469 253.914062 138.050781 253.914062 138.199219 C 253.914062 138.898438 253.640625 139.582031 253.085938 140.246094 C 250.367188 143.265625 247.957031 145.789062 245.859375 147.816406 C 241.445312 152.089844 238.519531 154.226562 237.085938 154.226562 C 236.570312 154.226562 236.3125 153.894531 236.3125 153.230469 C 236.3125 152.457031 236.605469 151.296875 237.195312 149.75 C 237.785156 148.203125 238.371094 146.839844 238.960938 145.660156 L 239.84375 143.945312 C 240.691406 142.4375 242.089844 139.859375 244.039062 136.210938 C 245.988281 132.5625 247.875 129.121094 249.699219 125.878906 C 251.515625 122.636719 253.234375 119.707031 254.851562 117.089844 L 250.496094 117.089844 C 250.125 117.089844 249.941406 117 249.941406 116.816406 C 249.941406 116.632812 250.089844 116.445312 250.382812 116.261719 C 250.679688 116.078125 250.992188 115.988281 251.320312 115.988281 C 252.132812 115.988281 253.546875 115.96875 255.570312 115.929688 C 257.375 113.09375 258.917969 110.847656 260.207031 109.191406 C 261.347656 107.753906 262.136719 107.035156 262.578125 107.035156 C 262.835938 107.035156 262.964844 107.199219 262.964844 107.53125 C 262.964844 108.304688 262.265625 109.964844 260.867188 112.503906 L 258.992188 115.929688 L 264.675781 115.929688 C 265.007812 115.929688 265.171875 116.023438 265.171875 116.207031 C 265.171875 116.796875 264.640625 117.089844 263.570312 117.089844 L 258.386719 117.089844 C 249.886719 133.226562 245.417969 141.679688 244.976562 142.453125 C 243.429688 145.292969 242.660156 147.132812 242.660156 147.980469 C 242.660156 148.238281 242.75 148.367188 242.933594 148.367188 C 243.449219 148.367188 244.9375 147.1875 247.402344 144.832031 Z M 264.34375 149.695312 C 261.292969 152.492188 259.195312 153.894531 258.054688 153.894531 C 257.539062 153.894531 257.28125 153.597656 257.28125 153.007812 C 257.28125 152.273438 257.601562 151.148438 258.242188 149.636719 C 258.890625 148.128906 259.542969 146.800781 260.207031 145.660156 L 261.199219 143.945312 C 261.347656 143.6875 261.421875 143.523438 261.421875 143.449219 C 261.421875 143.375 261.382812 143.339844 261.308594 143.339844 C 261.164062 143.339844 260.886719 143.542969 260.480469 143.945312 C 259.378906 145.164062 258.117188 146.460938 256.695312 147.835938 C 255.285156 149.222656 254.136719 150.300781 253.253906 151.074219 L 251.984375 152.179688 C 250.550781 153.285156 249.445312 153.839844 248.671875 153.839844 C 247.863281 153.839844 247.460938 153.210938 247.460938 151.960938 C 247.460938 151.332031 247.632812 150.375 247.976562 149.085938 C 248.332031 147.796875 248.601562 146.929688 248.785156 146.488281 C 249.628906 144.425781 250.683594 142.417969 251.949219 140.464844 C 253.222656 138.511719 254.726562 136.644531 256.453125 134.863281 C 258.183594 133.070312 260.195312 131.625 262.492188 130.519531 C 264.792969 129.414062 267.175781 128.863281 269.640625 128.863281 C 271.703125 128.863281 272.730469 129.175781 272.730469 129.800781 C 272.730469 130.167969 272.273438 130.355469 271.351562 130.355469 C 267.96875 130.355469 264.792969 131.796875 261.828125 134.6875 C 258.871094 137.582031 256.472656 140.90625 254.632812 144.664062 C 254.117188 145.695312 253.859375 146.5625 253.859375 147.261719 C 253.859375 147.667969 253.988281 147.871094 254.246094 147.871094 C 254.6875 147.871094 255.257812 147.558594 255.957031 146.929688 C 256.398438 146.527344 256.996094 145.992188 257.746094 145.328125 C 258.503906 144.664062 259.726562 143.394531 261.421875 141.515625 C 263.113281 139.636719 264.453125 137.886719 265.449219 136.265625 C 265.59375 135.972656 265.824219 135.621094 266.132812 135.214844 C 266.449219 134.8125 267.046875 134.265625 267.929688 133.582031 C 268.8125 132.902344 269.695312 132.5625 270.578125 132.5625 C 271.058594 132.5625 271.296875 132.691406 271.296875 132.949219 C 271.296875 133.023438 271.242188 133.152344 271.132812 133.335938 C 270.984375 133.632812 270.570312 134.367188 269.886719 135.546875 C 269.207031 136.726562 268.574219 137.839844 267.988281 138.886719 C 267.398438 139.9375 266.773438 141.082031 266.109375 142.3125 C 265.449219 143.550781 264.921875 144.609375 264.53125 145.492188 C 264.148438 146.378906 263.957031 146.96875 263.957031 147.261719 C 263.957031 147.484375 264.050781 147.59375 264.234375 147.59375 C 264.785156 147.59375 266.128906 146.527344 268.261719 144.390625 C 269.882812 142.695312 271.777344 140.613281 273.945312 138.144531 C 274.054688 138.035156 274.148438 137.980469 274.222656 137.980469 C 274.296875 137.980469 274.332031 138.050781 274.332031 138.199219 C 274.332031 138.898438 274.054688 139.582031 273.503906 140.246094 C 269.898438 144.261719 266.847656 147.410156 264.34375 149.695312 Z M 284.761719 126.265625 C 287.375 124.421875 289.71875 122.332031 291.792969 119.988281 C 293.875 117.652344 295.457031 115.496094 296.539062 113.523438 C 297.625 111.554688 298.445312 109.851562 299 108.417969 C 299.550781 106.980469 299.824219 105.949219 299.824219 105.320312 C 299.824219 104.953125 299.695312 104.769531 299.441406 104.769531 C 298.925781 104.769531 298.300781 105.136719 297.5625 105.875 C 296.164062 107.273438 294.582031 109.300781 292.816406 111.953125 C 291.050781 114.605469 289.625 116.878906 288.535156 118.773438 C 287.453125 120.671875 286.050781 123.207031 284.320312 126.375 C 284.46875 126.375 284.613281 126.339844 284.761719 126.265625 Z M 278.855469 144.832031 C 280.402344 143.285156 282.445312 141.054688 284.980469 138.144531 C 285.09375 138.035156 285.183594 137.980469 285.257812 137.980469 C 285.332031 137.980469 285.367188 138.050781 285.367188 138.199219 C 285.367188 138.898438 285.09375 139.582031 284.539062 140.246094 C 281.820312 143.265625 279.410156 145.789062 277.3125 147.816406 C 272.714844 152.160156 269.789062 154.335938 268.539062 154.335938 C 267.988281 154.335938 267.710938 153.949219 267.710938 153.175781 C 267.710938 152.769531 267.753906 152.328125 267.84375 151.847656 C 267.9375 151.371094 268.097656 150.84375 268.316406 150.269531 C 268.539062 149.699219 268.730469 149.222656 268.890625 148.832031 C 269.0625 148.449219 269.300781 147.894531 269.609375 147.175781 C 269.925781 146.460938 270.136719 145.972656 270.25 145.714844 C 271.277344 143.394531 274.441406 137.277344 279.738281 127.371094 C 286.988281 114.144531 293.644531 106.023438 299.714844 103 C 300.597656 102.558594 301.480469 102.339844 302.363281 102.339844 C 303.394531 102.339844 303.910156 102.816406 303.910156 103.773438 C 303.910156 105.984375 303.15625 108.40625 301.648438 111.035156 C 300.140625 113.671875 298.300781 116.097656 296.128906 118.308594 C 293.957031 120.519531 291.832031 122.453125 289.75 124.109375 C 287.675781 125.765625 285.882812 127.019531 284.375 127.867188 C 284.15625 127.941406 283.953125 128.105469 283.769531 128.363281 C 282.148438 130.980469 280.566406 133.785156 279.023438 136.785156 C 277.476562 139.792969 276.320312 142.160156 275.546875 143.890625 L 274.441406 146.433594 C 274.257812 146.984375 274.167969 147.355469 274.167969 147.539062 C 274.167969 147.871094 274.296875 148.035156 274.554688 148.035156 C 275.289062 148.035156 276.722656 146.96875 278.855469 144.832031 Z M 302.351562 142.621094 L 302.078125 142.785156 C 300.054688 145.292969 298.1875 147.472656 296.480469 149.328125 C 294.769531 151.191406 293.5625 152.4375 292.863281 153.0625 L 291.8125 153.949219 C 291.226562 154.425781 290.765625 154.667969 290.433594 154.667969 C 290.03125 154.667969 289.828125 154.335938 289.828125 153.671875 C 289.828125 152.089844 290.671875 148.570312 292.367188 143.117188 L 292.035156 143.285156 C 290.160156 145.605469 288.402344 147.65625 286.769531 149.4375 C 285.128906 151.230469 283.960938 152.4375 283.261719 153.0625 L 282.210938 153.949219 C 281.625 154.425781 281.164062 154.667969 280.832031 154.667969 C 280.429688 154.667969 280.226562 154.335938 280.226562 153.671875 C 280.226562 151.832031 281.035156 148.453125 282.652344 143.539062 C 284.273438 138.617188 285.855469 134.699219 287.398438 131.789062 C 287.804688 131.015625 288.390625 130.355469 289.164062 129.800781 C 289.9375 129.25 290.765625 128.972656 291.648438 128.972656 C 291.90625 128.972656 292.035156 129.082031 292.035156 129.304688 C 292.035156 129.523438 291.886719 129.929688 291.59375 130.519531 C 290.5625 132.65625 289.292969 135.738281 287.785156 139.769531 C 286.277344 143.808594 285.523438 146.597656 285.523438 148.144531 C 285.523438 148.332031 285.558594 148.421875 285.632812 148.421875 C 285.78125 148.421875 286.039062 148.21875 286.40625 147.816406 C 286.847656 147.410156 287.417969 146.855469 288.117188 146.15625 C 288.816406 145.457031 289.882812 144.210938 291.316406 142.421875 C 292.75 140.640625 293.761719 139.066406 294.351562 137.703125 L 297 131.789062 C 297.589844 130.832031 298.261719 130.121094 299.019531 129.65625 C 299.769531 129.199219 300.441406 128.972656 301.027344 128.972656 C 301.46875 128.972656 301.691406 129.082031 301.691406 129.304688 C 301.691406 129.449219 301.527344 129.855469 301.195312 130.519531 C 297.992188 137.1875 295.988281 142.878906 295.179688 147.59375 C 295.144531 147.742188 295.125 147.886719 295.125 148.035156 C 295.125 148.257812 295.179688 148.367188 295.289062 148.367188 C 295.546875 148.367188 296.46875 147.507812 298.050781 145.792969 C 299.632812 144.082031 300.699219 142.785156 301.25 141.902344 C 301.324219 141.753906 301.359375 141.609375 301.359375 141.460938 C 301.210938 141.128906 301.140625 140.6875 301.140625 140.132812 C 301.140625 137.921875 302.253906 135.464844 304.484375 132.75 C 306.707031 130.046875 308.957031 128.273438 311.238281 127.425781 C 311.457031 127.351562 311.605469 127.3125 311.679688 127.3125 C 311.898438 127.3125 312.011719 127.40625 312.011719 127.589844 C 311.972656 128.621094 309.195312 133.0625 303.675781 140.90625 C 303.566406 141.054688 303.511719 141.164062 303.511719 141.238281 C 303.511719 141.386719 303.566406 141.480469 303.675781 141.515625 C 304.117188 141.738281 304.558594 141.847656 305.003906 141.847656 C 306.65625 141.847656 308.644531 140.464844 310.960938 137.703125 C 311.035156 137.628906 311.089844 137.59375 311.128906 137.59375 C 311.3125 137.59375 311.402344 137.792969 311.402344 138.199219 C 311.402344 138.605469 310.960938 139.304688 310.078125 140.300781 C 308.460938 142.140625 306.601562 143.0625 304.503906 143.0625 C 303.769531 143.0625 303.050781 142.914062 302.351562 142.621094 Z M 329.390625 133.722656 C 329.722656 133.796875 329.886719 133.910156 329.886719 134.054688 C 329.886719 134.277344 329.742188 134.535156 329.445312 134.828125 C 329.042969 135.234375 328.445312 135.769531 327.660156 136.433594 C 326.863281 137.09375 326.394531 137.5 326.246094 137.648438 L 325.472656 138.699219 C 324.703125 140.871094 323.515625 143.125 321.921875 145.460938 C 320.316406 147.804688 318.367188 149.859375 316.070312 151.628906 C 313.769531 153.394531 311.570312 154.28125 309.472656 154.28125 C 306.859375 154.28125 305.554688 152.675781 305.554688 149.472656 C 305.554688 146.636719 306.472656 143.566406 308.3125 140.265625 C 310.152344 136.972656 312.535156 134.15625 315.464844 131.8125 C 318.386719 129.476562 321.261719 128.308594 324.09375 128.308594 C 326.15625 128.308594 327.183594 129.121094 327.183594 130.742188 C 327.183594 131.625 326.742188 132.820312 325.859375 134.332031 C 325.824219 134.367188 325.804688 134.425781 325.804688 134.496094 C 325.804688 134.570312 325.84375 134.609375 325.914062 134.609375 C 327.277344 134.054688 328.433594 133.761719 329.390625 133.722656 Z M 324.148438 135.050781 C 324.445312 133.761719 324.589844 132.765625 324.589844 132.066406 C 324.589844 130.519531 324.078125 129.746094 323.046875 129.746094 C 321.613281 129.746094 319.828125 131.070312 317.695312 133.722656 C 315.558594 136.375 313.730469 139.359375 312.207031 142.675781 C 310.679688 145.992188 309.914062 148.605469 309.914062 150.523438 C 309.914062 151.921875 310.410156 152.621094 311.402344 152.621094 C 312.949219 152.621094 314.796875 151.074219 316.953125 147.980469 C 319.101562 144.886719 320.398438 141.773438 320.839844 138.640625 C 320.800781 138.570312 320.785156 138.457031 320.785156 138.3125 C 320.785156 137.242188 321.738281 136.285156 323.652344 135.4375 C 323.949219 135.328125 324.113281 135.199219 324.148438 135.050781 Z M 338.332031 141.738281 C 338.035156 141.738281 337.890625 141.625 337.890625 141.40625 C 337.890625 141.292969 337.945312 141.148438 338.054688 140.964844 C 340.226562 137.574219 341.3125 135.253906 341.3125 134 C 341.3125 133.667969 341.183594 133.503906 340.925781 133.503906 C 339.820312 133.503906 337.226562 136.007812 333.144531 141.019531 C 331.929688 142.566406 330.796875 144.167969 329.746094 145.824219 C 328.699219 147.484375 327.976562 148.753906 327.570312 149.636719 L 326.910156 150.910156 C 326.46875 151.792969 325.785156 152.613281 324.867188 153.375 C 323.949219 154.125 322.992188 154.5 321.996094 154.5 C 321.484375 154.5 321.226562 154.371094 321.226562 154.113281 C 321.226562 153.894531 321.378906 153.433594 321.6875 152.734375 C 322.003906 152.03125 322.382812 151.257812 322.824219 150.410156 C 323.265625 149.566406 323.707031 148.734375 324.148438 147.925781 C 324.589844 147.113281 324.960938 146.433594 325.253906 145.878906 L 325.75 145.050781 L 331.542969 134.941406 C 333.789062 130.703125 336.140625 128.585938 338.605469 128.585938 C 338.9375 128.585938 339.105469 128.714844 339.105469 128.972656 C 339.105469 129.304688 338.300781 130.675781 336.699219 133.082031 C 335.101562 135.5 334.175781 137.039062 333.917969 137.703125 C 333.84375 137.921875 333.804688 138.050781 333.804688 138.089844 C 333.804688 138.164062 333.84375 138.199219 333.917969 138.199219 C 333.992188 138.199219 334.121094 138.109375 334.304688 137.921875 C 337.0625 134.792969 339.988281 132.011719 343.078125 129.578125 C 343.261719 129.394531 343.664062 129.125 344.289062 128.773438 C 344.917969 128.425781 345.46875 128.253906 345.945312 128.253906 C 346.644531 128.253906 346.996094 128.863281 346.996094 130.078125 C 346.996094 131.402344 346.554688 132.988281 345.671875 134.828125 C 344.789062 136.671875 343.59375 138.292969 342.082031 139.691406 L 341.863281 139.914062 C 341.714844 140.023438 341.558594 140.140625 341.386719 140.265625 C 341.226562 140.398438 341.015625 140.558594 340.757812 140.742188 C 340.5 140.925781 340.246094 141.082031 339.988281 141.207031 C 339.730469 141.339844 339.453125 141.460938 339.160156 141.570312 C 338.863281 141.679688 338.589844 141.738281 338.332031 141.738281 Z M 359.632812 144.832031 C 361.175781 143.285156 363.21875 141.054688 365.757812 138.144531 C 365.867188 138.035156 365.957031 137.980469 366.03125 137.980469 C 366.105469 137.980469 366.140625 138.050781 366.140625 138.199219 C 366.140625 138.898438 365.867188 139.582031 365.316406 140.246094 C 362.59375 143.265625 360.183594 145.789062 358.085938 147.816406 C 357.902344 148 357.558594 148.339844 357.058594 148.832031 C 356.566406 149.332031 356.171875 149.71875 355.878906 149.992188 C 355.585938 150.273438 355.199219 150.640625 354.71875 151.097656 C 354.242188 151.5625 353.835938 151.921875 353.507812 152.179688 C 353.175781 152.4375 352.816406 152.703125 352.425781 152.976562 C 352.042969 153.253906 351.691406 153.460938 351.375 153.59375 C 351.066406 153.71875 350.800781 153.78125 350.582031 153.78125 C 349.917969 153.78125 349.589844 153.175781 349.589844 151.960938 C 349.589844 150.632812 349.871094 148.9375 350.4375 146.875 C 351.011719 144.8125 351.59375 143.082031 352.183594 141.679688 L 353.007812 139.582031 C 353.046875 139.507812 353.066406 139.433594 353.066406 139.359375 C 353.066406 139.285156 353.027344 139.25 352.953125 139.25 L 352.625 139.359375 C 351.226562 140.761719 349.78125 142.335938 348.285156 144.089844 C 346.800781 145.835938 345.671875 147.226562 344.898438 148.257812 L 343.738281 149.804688 C 343.003906 150.945312 342.144531 151.941406 341.167969 152.789062 C 340.195312 153.636719 339.453125 154.058594 338.9375 154.058594 C 338.570312 154.058594 338.386719 153.820312 338.386719 153.339844 C 338.386719 152.640625 338.71875 151.535156 339.378906 150.023438 C 340.042969 148.515625 340.703125 147.171875 341.367188 145.992188 L 342.359375 144.222656 L 350.414062 129.800781 C 357.664062 116.90625 362.941406 108.359375 366.253906 104.160156 C 367.355469 102.726562 368.128906 102.007812 368.570312 102.007812 C 368.753906 102.007812 368.847656 102.152344 368.847656 102.449219 C 368.847656 103.257812 368.257812 104.84375 367.082031 107.199219 C 361.304688 117.664062 357.296875 124.902344 355.050781 128.917969 C 350.671875 136.761719 348.042969 141.421875 347.160156 142.898438 L 347.160156 143.117188 C 347.160156 143.226562 347.195312 143.285156 347.269531 143.285156 C 347.34375 143.285156 347.453125 143.210938 347.601562 143.0625 L 350.195312 140.246094 C 351.960938 138.367188 353.5625 136.707031 354.996094 135.269531 C 356.429688 133.835938 358.03125 132.425781 359.796875 131.039062 C 361.5625 129.660156 362.867188 128.972656 363.714844 128.972656 C 364.304688 128.972656 364.597656 129.414062 364.597656 130.296875 C 364.597656 130.8125 364.414062 131.605469 364.046875 132.675781 C 363.679688 133.742188 363.308594 134.277344 362.941406 134.277344 C 362.792969 134.277344 362.667969 134.09375 362.554688 133.722656 C 362.371094 132.804688 361.839844 132.34375 360.957031 132.34375 C 359.703125 132.34375 358.546875 133.527344 357.480469 135.902344 C 356.414062 138.28125 355.65625 140.582031 355.214844 142.808594 C 354.773438 145.039062 354.554688 146.542969 354.554688 147.316406 C 354.554688 148.128906 354.757812 148.53125 355.160156 148.53125 C 355.492188 148.53125 355.921875 148.320312 356.453125 147.890625 C 356.988281 147.472656 357.617188 146.894531 358.328125 146.15625 C 359.050781 145.421875 359.484375 144.976562 359.632812 144.832031 Z M 373.527344 146.875 C 372.863281 148.679688 371.816406 150.199219 370.378906 151.429688 C 368.945312 152.667969 367.613281 153.507812 366.386719 153.949219 C 365.148438 154.390625 364.035156 154.613281 363.042969 154.613281 C 360.355469 154.613281 359.011719 153.5625 359.011719 151.460938 C 359.011719 149.324219 360.191406 147.390625 362.542969 145.660156 C 363.648438 144.847656 364.84375 144.316406 366.132812 144.058594 C 366.316406 144.058594 366.40625 144.132812 366.40625 144.277344 C 366.40625 144.351562 366.371094 144.425781 366.296875 144.5 C 365.378906 145.199219 364.503906 146.285156 363.679688 147.757812 C 362.851562 149.234375 362.433594 150.523438 362.433594 151.628906 C 362.433594 152.734375 362.894531 153.285156 363.8125 153.285156 C 364.550781 153.285156 365.277344 152.980469 366 152.367188 C 366.710938 151.765625 367.253906 151.148438 367.621094 150.523438 L 368.171875 149.636719 C 368.910156 148.460938 369.527344 146.582031 370.027344 144.003906 C 370.519531 141.421875 370.839844 139.140625 370.988281 137.148438 L 371.152344 134.167969 C 371.152344 133.871094 371.097656 133.722656 370.988281 133.722656 L 370.765625 133.835938 L 365.304688 140.246094 C 364.898438 140.722656 364.625 140.964844 364.476562 140.964844 C 364.292969 140.964844 364.199219 140.835938 364.199219 140.574219 C 364.199219 140.097656 364.328125 139.730469 364.585938 139.472656 L 365.082031 138.863281 C 369.277344 134.148438 371.667969 131.292969 372.257812 130.296875 C 372.808594 129.449219 373.617188 128.714844 374.683594 128.089844 C 375.714844 127.5 376.929688 127.203125 378.328125 127.203125 C 378.695312 127.203125 378.878906 127.351562 378.878906 127.644531 C 378.878906 127.832031 378.730469 127.996094 378.4375 128.144531 C 378.328125 128.179688 378.191406 128.261719 378.027344 128.386719 C 377.859375 128.519531 377.566406 128.824219 377.144531 129.304688 C 376.71875 129.78125 376.339844 130.335938 376.007812 130.960938 C 375.679688 131.585938 375.382812 132.460938 375.125 133.582031 C 374.867188 134.707031 374.738281 135.953125 374.738281 137.316406 C 374.738281 141.550781 374.335938 144.738281 373.527344 146.875 Z M 373.527344 146.875 "/>
</g>
<g clip-path="url(#clip2)" clip-rule="nonzero">
<path style=" stroke:none;fill-rule:nonzero;fill:rgb(29.411765%,56.862745%,94.509804%);fill-opacity:1;" d="M 96.457031 185.867188 L 94.339844 185.867188 L 94.339844 172.121094 L 89.546875 172.121094 L 89.546875 170.246094 L 101.246094 170.246094 L 101.246094 172.121094 L 96.457031 172.121094 Z M 105.257812 185.867188 L 103.253906 185.867188 L 103.253906 169.351562 L 105.257812 169.351562 L 105.257812 176.113281 C 105.675781 175.503906 106.203125 175 106.839844 174.597656 C 107.480469 174.195312 108.230469 173.996094 109.09375 173.996094 C 110.398438 173.996094 111.375 174.390625 112.019531 175.175781 C 112.667969 175.964844 112.992188 177.007812 112.992188 178.300781 L 112.992188 185.867188 L 110.988281 185.867188 L 110.988281 178.523438 C 110.988281 177.691406 110.792969 177.023438 110.40625 176.515625 C 110.019531 176.011719 109.476562 175.757812 108.78125 175.757812 C 108.097656 175.757812 107.445312 176 106.828125 176.480469 C 106.210938 176.964844 105.691406 177.535156 105.257812 178.191406 Z M 121.082031 186.136719 C 119.414062 186.136719 118.097656 185.601562 117.125 184.539062 C 116.148438 183.476562 115.664062 181.984375 115.664062 180.066406 C 115.664062 178.90625 115.882812 177.867188 116.320312 176.949219 C 116.761719 176.035156 117.375 175.3125 118.160156 174.785156 C 118.945312 174.257812 119.859375 173.996094 120.898438 173.996094 C 122.015625 173.996094 122.941406 174.234375 123.675781 174.71875 C 124.414062 175.203125 124.96875 175.855469 125.339844 176.671875 C 125.710938 177.492188 125.894531 178.390625 125.894531 179.375 C 125.894531 179.894531 125.871094 180.398438 125.824219 180.890625 L 117.71875 180.890625 C 117.847656 181.976562 118.226562 182.824219 118.855469 183.433594 C 119.476562 184.042969 120.300781 184.351562 121.328125 184.351562 C 121.996094 184.351562 122.597656 184.277344 123.128906 184.136719 C 123.664062 183.996094 124.175781 183.8125 124.671875 183.589844 L 125.132812 185.308594 C 124.601562 185.546875 124 185.746094 123.332031 185.902344 C 122.664062 186.058594 121.914062 186.136719 121.082031 186.136719 Z M 117.691406 179.261719 L 124.042969 179.261719 C 124.042969 178.128906 123.761719 177.261719 123.199219 176.648438 C 122.632812 176.039062 121.851562 175.734375 120.859375 175.734375 C 119.996094 175.734375 119.28125 176.035156 118.714844 176.636719 C 118.152344 177.242188 117.8125 178.117188 117.691406 179.261719 Z M 140.46875 186.136719 C 139.796875 186.136719 139.171875 186.011719 138.585938 185.765625 C 137.996094 185.519531 137.511719 185.234375 137.125 184.90625 L 137.125 185.867188 L 135.253906 185.867188 L 135.253906 169.351562 L 137.257812 169.351562 L 137.257812 175.46875 C 137.554688 175.125 137.992188 174.792969 138.5625 174.472656 C 139.132812 174.152344 139.8125 173.996094 140.601562 173.996094 C 141.492188 173.996094 142.328125 174.226562 143.109375 174.695312 C 143.890625 175.164062 144.515625 175.84375 144.992188 176.726562 C 145.464844 177.613281 145.703125 178.6875 145.703125 179.953125 C 145.703125 180.875 145.554688 181.714844 145.257812 182.476562 C 144.960938 183.234375 144.566406 183.882812 144.070312 184.425781 C 143.570312 184.96875 143.007812 185.390625 142.382812 185.6875 C 141.761719 185.988281 141.121094 186.136719 140.46875 186.136719 Z M 139.933594 184.351562 C 140.660156 184.351562 141.304688 184.171875 141.863281 183.8125 C 142.417969 183.457031 142.855469 182.953125 143.175781 182.296875 C 143.496094 181.640625 143.652344 180.882812 143.652344 180.019531 C 143.652344 179.128906 143.496094 178.363281 143.175781 177.722656 C 142.855469 177.082031 142.433594 176.589844 141.90625 176.25 C 141.378906 175.90625 140.792969 175.734375 140.15625 175.734375 C 139.515625 175.734375 138.941406 175.894531 138.429688 176.214844 C 137.917969 176.535156 137.523438 176.882812 137.257812 177.253906 L 137.257812 183.457031 C 137.601562 183.726562 138 183.941406 138.460938 184.105469 C 138.921875 184.269531 139.414062 184.351562 139.933594 184.351562 Z M 153.125 186.136719 C 151.460938 186.136719 150.140625 185.601562 149.167969 184.539062 C 148.195312 183.476562 147.710938 181.984375 147.710938 180.066406 C 147.710938 178.90625 147.929688 177.867188 148.367188 176.949219 C 148.804688 176.035156 149.417969 175.3125 150.207031 174.785156 C 150.992188 174.257812 151.90625 173.996094 152.949219 173.996094 C 154.0625 173.996094 154.984375 174.234375 155.71875 174.71875 C 156.457031 175.203125 157.011719 175.855469 157.382812 176.671875 C 157.753906 177.492188 157.941406 178.390625 157.941406 179.375 C 157.941406 179.894531 157.917969 180.398438 157.871094 180.890625 L 149.761719 180.890625 C 149.894531 181.976562 150.273438 182.824219 150.898438 183.433594 C 151.519531 184.042969 152.347656 184.351562 153.371094 184.351562 C 154.039062 184.351562 154.640625 184.277344 155.175781 184.136719 C 155.710938 183.996094 156.222656 183.8125 156.714844 183.589844 L 157.183594 185.308594 C 156.648438 185.546875 156.046875 185.746094 155.375 185.902344 C 154.707031 186.058594 153.957031 186.136719 153.125 186.136719 Z M 149.738281 179.261719 L 156.089844 179.261719 C 156.089844 178.128906 155.808594 177.261719 155.242188 176.648438 C 154.679688 176.039062 153.898438 175.734375 152.902344 175.734375 C 152.042969 175.734375 151.328125 176.035156 150.761719 176.636719 C 150.199219 177.242188 149.855469 178.117188 149.738281 179.261719 Z M 163.734375 186.136719 C 162.859375 186.136719 162.066406 186.023438 161.359375 185.800781 C 160.65625 185.578125 160.070312 185.289062 159.613281 184.929688 L 160.457031 183.257812 C 160.839844 183.582031 161.328125 183.855469 161.914062 184.070312 C 162.503906 184.285156 163.132812 184.394531 163.800781 184.394531 C 164.628906 184.394531 165.257812 184.257812 165.683594 183.980469 C 166.105469 183.707031 166.320312 183.351562 166.320312 182.921875 C 166.320312 182.609375 166.242188 182.332031 166.082031 182.097656 C 165.929688 181.859375 165.640625 181.621094 165.222656 181.390625 C 164.808594 181.160156 164.207031 180.914062 163.421875 180.644531 C 162.335938 180.273438 161.523438 179.828125 160.980469 179.316406 C 160.4375 178.804688 160.167969 178.09375 160.167969 177.1875 C 160.167969 176.292969 160.558594 175.539062 161.335938 174.917969 C 162.117188 174.300781 163.199219 173.996094 164.582031 173.996094 C 165.324219 173.996094 165.984375 174.070312 166.558594 174.226562 C 167.144531 174.382812 167.664062 174.582031 168.121094 174.820312 L 167.5625 176.472656 C 167.164062 176.234375 166.707031 176.039062 166.195312 175.890625 C 165.683594 175.742188 165.113281 175.667969 164.488281 175.667969 C 163.714844 175.667969 163.128906 175.824219 162.730469 176.136719 C 162.332031 176.449219 162.128906 176.792969 162.128906 177.164062 C 162.128906 177.519531 162.285156 177.824219 162.59375 178.078125 C 162.910156 178.332031 163.519531 178.605469 164.425781 178.90625 C 165.894531 179.394531 166.917969 179.9375 167.496094 180.535156 C 168.078125 181.128906 168.371094 181.871094 168.371094 182.765625 C 168.371094 183.808594 167.949219 184.628906 167.109375 185.230469 C 166.269531 185.832031 165.144531 186.136719 163.734375 186.136719 Z M 175.097656 186.136719 C 173.980469 186.136719 173.101562 185.765625 172.457031 185.027344 C 171.808594 184.292969 171.484375 183.242188 171.484375 181.871094 L 171.484375 176.425781 L 169.480469 176.425781 L 169.480469 174.6875 L 171.53125 174.6875 L 171.953125 171.027344 L 173.492188 171.027344 L 173.492188 174.6875 L 176.699219 174.6875 L 176.699219 176.425781 L 173.492188 176.425781 L 173.492188 182.027344 C 173.492188 182.890625 173.675781 183.496094 174.039062 183.835938 C 174.402344 184.179688 174.835938 184.351562 175.339844 184.351562 C 175.710938 184.351562 176.066406 184.289062 176.402344 184.171875 C 176.734375 184.050781 177.042969 183.910156 177.324219 183.746094 L 177.882812 185.355469 C 177.585938 185.53125 177.183594 185.707031 176.679688 185.878906 C 176.171875 186.050781 175.644531 186.136719 175.097656 186.136719 Z M 189.695312 186.136719 C 188.816406 186.136719 188.023438 186.023438 187.316406 185.800781 C 186.613281 185.578125 186.03125 185.289062 185.570312 184.929688 L 186.417969 183.257812 C 186.804688 183.582031 187.289062 183.855469 187.875 184.070312 C 188.464844 184.285156 189.09375 184.394531 189.761719 184.394531 C 190.59375 184.394531 191.21875 184.257812 191.640625 183.980469 C 192.066406 183.707031 192.277344 183.351562 192.277344 182.921875 C 192.277344 182.609375 192.199219 182.332031 192.042969 182.097656 C 191.886719 181.859375 191.601562 181.621094 191.1875 181.390625 C 190.769531 181.160156 190.167969 180.914062 189.382812 180.644531 C 188.296875 180.273438 187.484375 179.828125 186.9375 179.316406 C 186.398438 178.804688 186.128906 178.09375 186.128906 177.1875 C 186.128906 176.292969 186.515625 175.539062 187.296875 174.917969 C 188.078125 174.300781 189.160156 173.996094 190.539062 173.996094 C 191.285156 173.996094 191.945312 174.070312 192.523438 174.226562 C 193.105469 174.382812 193.625 174.582031 194.085938 174.820312 L 193.527344 176.472656 C 193.125 176.234375 192.667969 176.039062 192.152344 175.890625 C 191.644531 175.742188 191.074219 175.667969 190.453125 175.667969 C 189.679688 175.667969 189.09375 175.824219 188.691406 176.136719 C 188.289062 176.449219 188.089844 176.792969 188.089844 177.164062 C 188.089844 177.519531 188.246094 177.824219 188.558594 178.078125 C 188.871094 178.332031 189.476562 178.605469 190.382812 178.90625 C 191.855469 179.394531 192.878906 179.9375 193.460938 180.535156 C 194.039062 181.128906 194.328125 181.871094 194.328125 182.765625 C 194.328125 183.808594 193.910156 184.628906 193.066406 185.230469 C 192.230469 185.832031 191.105469 186.136719 189.695312 186.136719 Z M 201.058594 186.136719 C 199.945312 186.136719 199.066406 185.765625 198.417969 185.027344 C 197.773438 184.292969 197.449219 183.242188 197.449219 181.871094 L 197.449219 176.425781 L 195.445312 176.425781 L 195.445312 174.6875 L 197.492188 174.6875 L 197.917969 171.027344 L 199.457031 171.027344 L 199.457031 174.6875 L 202.664062 174.6875 L 202.664062 176.425781 L 199.457031 176.425781 L 199.457031 182.027344 C 199.457031 182.890625 199.636719 183.496094 200 183.835938 C 200.363281 184.179688 200.800781 184.351562 201.304688 184.351562 C 201.675781 184.351562 202.027344 184.289062 202.363281 184.171875 C 202.699219 184.050781 203.007812 183.910156 203.289062 183.746094 L 203.847656 185.355469 C 203.546875 185.53125 203.148438 185.707031 202.640625 185.878906 C 202.136719 186.050781 201.609375 186.136719 201.058594 186.136719 Z M 210.035156 186.136719 C 208.371094 186.136719 207.054688 185.601562 206.082031 184.539062 C 205.109375 183.476562 204.621094 181.984375 204.621094 180.066406 C 204.621094 178.90625 204.839844 177.867188 205.28125 176.949219 C 205.71875 176.035156 206.328125 175.3125 207.117188 174.785156 C 207.90625 174.257812 208.820312 173.996094 209.859375 173.996094 C 210.972656 173.996094 211.898438 174.234375 212.636719 174.71875 C 213.371094 175.203125 213.921875 175.855469 214.292969 176.671875 C 214.664062 177.492188 214.851562 178.390625 214.851562 179.375 C 214.851562 179.894531 214.828125 180.398438 214.785156 180.890625 L 206.671875 180.890625 C 206.804688 181.976562 207.183594 182.824219 207.808594 183.433594 C 208.433594 184.042969 209.257812 184.351562 210.28125 184.351562 C 210.949219 184.351562 211.550781 184.277344 212.085938 184.136719 C 212.621094 183.996094 213.136719 183.8125 213.625 183.589844 L 214.09375 185.308594 C 213.558594 185.546875 212.957031 185.746094 212.289062 185.902344 C 211.621094 186.058594 210.867188 186.136719 210.035156 186.136719 Z M 206.648438 179.261719 L 213 179.261719 C 213 178.128906 212.71875 177.261719 212.152344 176.648438 C 211.589844 176.039062 210.808594 175.734375 209.8125 175.734375 C 208.953125 175.734375 208.238281 176.035156 207.675781 176.636719 C 207.109375 177.242188 206.769531 178.117188 206.648438 179.261719 Z M 222.160156 186.136719 C 220.496094 186.136719 219.175781 185.601562 218.203125 184.539062 C 217.230469 183.476562 216.746094 181.984375 216.746094 180.066406 C 216.746094 178.90625 216.964844 177.867188 217.40625 176.949219 C 217.839844 176.035156 218.453125 175.3125 219.242188 174.785156 C 220.027344 174.257812 220.941406 173.996094 221.984375 173.996094 C 223.097656 173.996094 224.023438 174.234375 224.757812 174.71875 C 225.492188 175.203125 226.046875 175.855469 226.417969 176.671875 C 226.789062 177.492188 226.976562 178.390625 226.976562 179.375 C 226.976562 179.894531 226.953125 180.398438 226.90625 180.890625 L 218.796875 180.890625 C 218.929688 181.976562 219.308594 182.824219 219.933594 183.433594 C 220.554688 184.042969 221.382812 184.351562 222.40625 184.351562 C 223.074219 184.351562 223.675781 184.277344 224.210938 184.136719 C 224.746094 183.996094 225.257812 183.8125 225.75 183.589844 L 226.21875 185.308594 C 225.683594 185.546875 225.082031 185.746094 224.410156 185.902344 C 223.742188 186.058594 222.992188 186.136719 222.160156 186.136719 Z M 218.773438 179.261719 L 225.125 179.261719 C 225.125 178.128906 224.84375 177.261719 224.277344 176.648438 C 223.714844 176.039062 222.933594 175.734375 221.9375 175.734375 C 221.078125 175.734375 220.363281 176.035156 219.796875 176.636719 C 219.234375 177.242188 218.890625 178.117188 218.773438 179.261719 Z M 233.171875 186.136719 C 232.488281 186.136719 231.871094 186.003906 231.320312 185.742188 C 230.769531 185.484375 230.335938 185.0625 230.015625 184.484375 C 229.695312 183.902344 229.539062 183.152344 229.539062 182.230469 L 229.539062 169.351562 L 231.542969 169.351562 L 231.542969 182.027344 C 231.542969 182.832031 231.710938 183.425781 232.042969 183.8125 C 232.378906 184.199219 232.84375 184.394531 233.4375 184.394531 C 233.71875 184.394531 234 184.359375 234.269531 184.292969 C 234.546875 184.226562 234.78125 184.148438 234.976562 184.058594 L 235.464844 185.6875 C 235.199219 185.808594 234.867188 185.910156 234.472656 186 C 234.078125 186.089844 233.644531 186.136719 233.171875 186.136719 Z M 246.046875 185.867188 L 244.042969 185.867188 L 244.042969 174.261719 L 246.046875 174.261719 Z M 245.042969 172.277344 C 244.660156 172.277344 244.328125 172.136719 244.054688 171.851562 C 243.777344 171.570312 243.640625 171.242188 243.640625 170.871094 C 243.640625 170.4375 243.765625 170.097656 244.019531 169.84375 C 244.273438 169.589844 244.613281 169.464844 245.042969 169.464844 C 245.429688 169.464844 245.761719 169.601562 246.039062 169.875 C 246.3125 170.152344 246.449219 170.484375 246.449219 170.871094 C 246.449219 171.285156 246.324219 171.625 246.070312 171.882812 C 245.816406 172.144531 245.476562 172.277344 245.042969 172.277344 Z M 251.621094 185.867188 L 249.613281 185.867188 L 249.613281 174.261719 L 251.550781 174.261719 L 251.550781 176.203125 C 251.96875 175.578125 252.5 175.054688 253.148438 174.628906 C 253.792969 174.207031 254.5625 173.996094 255.453125 173.996094 C 256.761719 173.996094 257.738281 174.390625 258.386719 175.175781 C 259.03125 175.964844 259.351562 177.007812 259.351562 178.300781 L 259.351562 185.867188 L 257.347656 185.867188 L 257.347656 178.523438 C 257.347656 177.691406 257.148438 177.023438 256.753906 176.515625 C 256.363281 176.011719 255.816406 175.757812 255.117188 175.757812 C 254.433594 175.757812 253.789062 176 253.179688 176.480469 C 252.570312 176.964844 252.050781 177.535156 251.621094 178.191406 Z M 273.550781 186.136719 C 272.433594 186.136719 271.554688 185.765625 270.90625 185.027344 C 270.261719 184.292969 269.9375 183.242188 269.9375 181.871094 L 269.9375 176.425781 L 267.933594 176.425781 L 267.933594 174.6875 L 269.984375 174.6875 L 270.40625 171.027344 L 271.945312 171.027344 L 271.945312 174.6875 L 275.152344 174.6875 L 275.152344 176.425781 L 271.945312 176.425781 L 271.945312 182.027344 C 271.945312 182.890625 272.125 183.496094 272.488281 183.835938 C 272.855469 184.179688 273.289062 184.351562 273.792969 184.351562 C 274.164062 184.351562 274.519531 184.289062 274.851562 184.171875 C 275.1875 184.050781 275.496094 183.910156 275.777344 183.746094 L 276.335938 185.355469 C 276.039062 185.53125 275.636719 185.707031 275.132812 185.878906 C 274.625 186.050781 274.097656 186.136719 273.550781 186.136719 Z M 280.34375 185.867188 L 278.335938 185.867188 L 278.335938 169.351562 L 280.34375 169.351562 L 280.34375 176.113281 C 280.757812 175.503906 281.285156 175 281.925781 174.597656 C 282.5625 174.195312 283.3125 173.996094 284.175781 173.996094 C 285.484375 173.996094 286.460938 174.390625 287.109375 175.175781 C 287.753906 175.964844 288.074219 177.007812 288.074219 178.300781 L 288.074219 185.867188 L 286.070312 185.867188 L 286.070312 178.523438 C 286.070312 177.691406 285.875 177.023438 285.492188 176.515625 C 285.105469 176.011719 284.5625 175.757812 283.863281 175.757812 C 283.179688 175.757812 282.53125 176 281.914062 176.480469 C 281.296875 176.964844 280.773438 177.535156 280.34375 178.191406 Z M 296.164062 186.136719 C 294.5 186.136719 293.183594 185.601562 292.210938 184.539062 C 291.238281 183.476562 290.75 181.984375 290.75 180.066406 C 290.75 178.90625 290.96875 177.867188 291.410156 176.949219 C 291.847656 176.035156 292.457031 175.3125 293.246094 174.785156 C 294.035156 174.257812 294.949219 173.996094 295.988281 173.996094 C 297.101562 173.996094 298.027344 174.234375 298.765625 174.71875 C 299.5 175.203125 300.050781 175.855469 300.421875 176.671875 C 300.792969 177.492188 300.980469 178.390625 300.980469 179.375 C 300.980469 179.894531 300.957031 180.398438 300.914062 180.890625 L 292.800781 180.890625 C 292.933594 181.976562 293.3125 182.824219 293.9375 183.433594 C 294.5625 184.042969 295.386719 184.351562 296.410156 184.351562 C 297.078125 184.351562 297.679688 184.277344 298.214844 184.136719 C 298.75 183.996094 299.261719 183.8125 299.753906 183.589844 L 300.222656 185.308594 C 299.6875 185.546875 299.085938 185.746094 298.417969 185.902344 C 297.75 186.058594 296.996094 186.136719 296.164062 186.136719 Z M 292.777344 179.261719 L 299.128906 179.261719 C 299.128906 178.128906 298.847656 177.261719 298.28125 176.648438 C 297.71875 176.039062 296.9375 175.734375 295.941406 175.734375 C 295.082031 175.734375 294.367188 176.035156 293.804688 176.636719 C 293.238281 177.242188 292.898438 178.117188 292.777344 179.261719 Z M 315.019531 186.136719 C 313.921875 186.136719 312.957031 185.878906 312.132812 185.363281 C 311.308594 184.851562 310.675781 184.136719 310.230469 183.21875 C 309.78125 182.308594 309.558594 181.253906 309.558594 180.066406 C 309.558594 178.949219 309.785156 177.929688 310.238281 177.007812 C 310.691406 176.085938 311.34375 175.351562 312.191406 174.808594 C 313.035156 174.265625 314.03125 173.996094 315.175781 173.996094 C 315.828125 173.996094 316.40625 174.054688 316.902344 174.171875 C 317.402344 174.292969 317.878906 174.464844 318.339844 174.6875 L 317.738281 176.382812 C 317.324219 176.175781 316.925781 176.019531 316.542969 175.921875 C 316.167969 175.828125 315.75 175.78125 315.289062 175.78125 C 314.246094 175.78125 313.375 176.15625 312.667969 176.90625 C 311.960938 177.65625 311.609375 178.695312 311.609375 180.019531 C 311.609375 180.824219 311.757812 181.554688 312.054688 182.207031 C 312.351562 182.863281 312.765625 183.382812 313.289062 183.769531 C 313.820312 184.15625 314.441406 184.351562 315.152344 184.351562 C 315.71875 184.351562 316.203125 184.285156 316.601562 184.15625 C 317.003906 184.03125 317.433594 183.851562 317.894531 183.613281 L 318.519531 185.308594 C 318.058594 185.5625 317.542969 185.761719 316.96875 185.910156 C 316.398438 186.0625 315.75 186.136719 315.019531 186.136719 Z M 325.511719 186.136719 C 324.414062 186.136719 323.425781 185.878906 322.546875 185.363281 C 321.671875 184.851562 320.984375 184.136719 320.488281 183.21875 C 319.988281 182.308594 319.742188 181.253906 319.742188 180.066406 C 319.742188 178.816406 319.992188 177.738281 320.5 176.828125 C 321.003906 175.921875 321.695312 175.222656 322.570312 174.730469 C 323.449219 174.238281 324.429688 173.996094 325.511719 173.996094 C 326.597656 173.996094 327.574219 174.238281 328.445312 174.730469 C 329.3125 175.222656 330.003906 175.917969 330.519531 176.816406 C 331.03125 177.71875 331.285156 178.785156 331.285156 180.019531 C 331.285156 181.253906 331.03125 182.328125 330.527344 183.242188 C 330.023438 184.160156 329.335938 184.871094 328.46875 185.375 C 327.597656 185.882812 326.613281 186.136719 325.511719 186.136719 Z M 325.511719 184.351562 C 326.6875 184.351562 327.601562 183.949219 328.253906 183.152344 C 328.90625 182.359375 329.234375 181.328125 329.234375 180.066406 C 329.234375 179.292969 329.070312 178.578125 328.746094 177.929688 C 328.417969 177.285156 327.976562 176.765625 327.421875 176.371094 C 326.863281 175.976562 326.226562 175.78125 325.511719 175.78125 C 324.339844 175.78125 323.425781 176.167969 322.773438 176.941406 C 322.117188 177.714844 321.789062 178.742188 321.789062 180.019531 C 321.789062 180.792969 321.953125 181.511719 322.28125 182.171875 C 322.609375 182.835938 323.050781 183.363281 323.609375 183.757812 C 324.164062 184.152344 324.800781 184.351562 325.511719 184.351562 Z M 337.75 186.136719 C 337.078125 186.136719 336.449219 185.992188 335.855469 185.710938 C 335.257812 185.429688 334.777344 184.96875 334.40625 184.335938 C 334.035156 183.707031 333.847656 182.863281 333.847656 181.804688 L 333.847656 174.261719 L 335.855469 174.261719 L 335.855469 181.539062 C 335.855469 182.445312 336.046875 183.140625 336.433594 183.621094 C 336.820312 184.105469 337.382812 184.351562 338.128906 184.351562 C 338.734375 184.351562 339.324219 184.226562 339.898438 183.980469 C 340.46875 183.734375 340.980469 183.40625 341.425781 182.988281 L 341.425781 174.261719 L 343.429688 174.261719 L 343.429688 182.855469 C 343.429688 183.496094 343.566406 183.914062 343.839844 184.113281 C 344.117188 184.316406 344.417969 184.417969 344.746094 184.417969 L 344.324219 185.980469 C 342.941406 185.980469 342.085938 185.429688 341.761719 184.328125 C 341.238281 184.863281 340.636719 185.296875 339.953125 185.632812 C 339.269531 185.96875 338.535156 186.136719 337.75 186.136719 Z M 349.425781 185.867188 L 347.421875 185.867188 L 347.421875 174.261719 L 349.359375 174.261719 L 349.359375 176.203125 C 349.777344 175.578125 350.304688 175.054688 350.949219 174.628906 C 351.597656 174.207031 352.367188 173.996094 353.257812 173.996094 C 354.566406 173.996094 355.542969 174.390625 356.1875 175.175781 C 356.835938 175.964844 357.160156 177.007812 357.160156 178.300781 L 357.160156 185.867188 L 355.152344 185.867188 L 355.152344 178.523438 C 355.152344 177.691406 354.957031 177.023438 354.5625 176.515625 C 354.167969 176.011719 353.625 175.757812 352.925781 175.757812 C 352.242188 175.757812 351.59375 176 350.988281 176.480469 C 350.378906 176.964844 349.855469 177.535156 349.425781 178.191406 Z M 364.664062 186.136719 C 363.550781 186.136719 362.671875 185.765625 362.027344 185.027344 C 361.378906 184.292969 361.054688 183.242188 361.054688 181.871094 L 361.054688 176.425781 L 359.050781 176.425781 L 359.050781 174.6875 L 361.101562 174.6875 L 361.523438 171.027344 L 363.0625 171.027344 L 363.0625 174.6875 L 366.269531 174.6875 L 366.269531 176.425781 L 363.0625 176.425781 L 363.0625 182.027344 C 363.0625 182.890625 363.242188 183.496094 363.609375 183.835938 C 363.972656 184.179688 364.40625 184.351562 364.910156 184.351562 C 365.28125 184.351562 365.636719 184.289062 365.972656 184.171875 C 366.304688 184.050781 366.613281 183.910156 366.894531 183.746094 L 367.453125 185.355469 C 367.15625 185.53125 366.753906 185.707031 366.25 185.878906 C 365.742188 186.050781 365.214844 186.136719 364.664062 186.136719 Z M 369.523438 191.046875 C 369.078125 191.046875 368.6875 191 368.355469 190.910156 C 368.019531 190.820312 367.757812 190.71875 367.5625 190.597656 L 368.007812 188.925781 C 368.1875 189.027344 368.410156 189.117188 368.675781 189.191406 C 368.945312 189.265625 369.242188 189.304688 369.570312 189.304688 C 370.191406 189.304688 370.75 189.101562 371.242188 188.703125 C 371.730469 188.300781 372.199219 187.511719 372.644531 186.335938 L 373.15625 184.996094 L 372.085938 184.996094 L 367.5625 174.796875 L 369.347656 173.996094 L 373.667969 183.65625 L 377.035156 174.082031 L 378.886719 174.796875 L 374.628906 186.449219 C 374.195312 187.636719 373.730469 188.566406 373.222656 189.238281 C 372.71875 189.90625 372.160156 190.375 371.550781 190.644531 C 370.941406 190.910156 370.265625 191.046875 369.523438 191.046875 Z M 369.523438 191.046875 "/>
</g>
<g clip-path="url(#clip3)" clip-rule="nonzero">
<path style=" stroke:none;fill-rule:nonzero;fill:rgb(11.764706%,73.333333%,84.313725%);fill-opacity:1;" d="M 0.0976562 146.527344 C 0.0976562 65.601562 65.609375 0 146.421875 0 C 209.34375 0 262.988281 39.769531 283.65625 95.574219 L 281.035156 95.574219 C 260.484375 41.152344 207.964844 2.457031 146.421875 2.457031 C 66.964844 2.457031 2.550781 66.957031 2.550781 146.527344 C 2.550781 226.09375 66.964844 290.59375 146.421875 290.59375 C 207.964844 290.59375 260.484375 251.898438 281.035156 197.476562 L 283.65625 197.476562 C 262.988281 253.285156 209.34375 293.050781 146.421875 293.050781 C 65.609375 293.050781 0.0976562 227.449219 0.0976562 146.527344 Z M 0.0976562 146.527344 "/>
</g>
<g clip-path="url(#clip4)" clip-rule="nonzero">
<path style="fill:none;stroke-width:1;stroke-linecap:butt;stroke-linejoin:miter;stroke:rgb(100%,100%,100%);stroke-opacity:1;stroke-miterlimit:4;" d="M -0.000475789 123.601297 C -0.000475789 55.337372 55.337529 0.000000000000005853 123.600164 0.000000000000005853 C 176.750518 0.000000000000005853 222.064263 33.547088 239.522577 80.620429 L 237.308529 80.620429 C 219.949204 34.713542 175.58575 2.072598 123.600164 2.072598 C 56.482499 2.072598 2.071688 56.480761 2.071688 123.601297 C 2.071688 190.718537 56.482499 245.126701 123.600164 245.126701 C 175.58575 245.126701 219.949204 212.485757 237.308529 166.578869 L 239.522577 166.578869 C 222.064263 213.655506 176.750518 247.199298 123.600164 247.199298 C 55.337529 247.199298 -0.000475789 191.861926 -0.000475789 123.601297 Z M -0.000475789 123.601297 " transform="matrix(1.183847,0,0,1.185484,0.0982195,-0.000000000000006939)"/>
</g>
</g>
</svg>
